<svg xmlns="http://www.w3.org/2000/svg" viewBox="0 0 192.6 81.2"><defs><style>.cls-1{fill:#231f20;}.cls-2{font-size:40px;fill:#f15922;font-family:AndaleMono, Andale Mono;letter-spacing:-0.13em;}.cls-3{fill:#50b4a4;stroke-width:0.25px;stroke-miterlimit:4;}.cls-3,.cls-5{stroke:#50b4a4;}.cls-3,.cls-5,.cls-6{stroke-linecap:round;stroke-linejoin:round;}.cls-4{letter-spacing:-0.1em;}.cls-5,.cls-6{fill:none;stroke-width:0.5px;}.cls-6{stroke:#f15922;}</style></defs><title>electraFinalLogoBackground</title><g id="Layer_19" data-name="Layer 19"><rect class="cls-1" x="-0.5" y="0.1" width="193.8" height="81.63"/><text class="cls-2" transform="translate(22.2 57)">E<tspan class="cls-3" x="18.9" y="0">L</tspan><tspan x="37.8" y="0">E</tspan><tspan class="cls-4" x="56.8" y="0">CTR</tspan></text><polygon class="cls-5" points="144.4 56.8 147.4 49.4 157.4 24.6 167.5 49.4 170.6 57 157.2 49.3 144.4 56.8"/><polygon class="cls-5" points="167.5 49.4 147.4 49.4 157.2 58.3 167.5 49.4"/><polygon class="cls-5" points="167.5 49.4 147.4 49.4 157.3 40.1 167.5 49.4"/><path class="cls-5" d="M157.2,58.3l.2-33.7Z"/><polygon class="cls-5" points="163.7 40.1 151.2 40.1 157.2 49.3 163.7 40.1"/><polygon class="cls-5" points="163.7 40.1 151.2 40.1 157.4 32 163.7 40.1"/><polygon class="cls-5" points="154.4 32 160.5 32 157.3 40.1 154.4 32"/><polyline class="cls-6" points="144.9 19.3 151.5 24.1 152.2 20.5 155.5 23.1"/></g></svg>