<svg id="Layer_19" data-name="Layer 19" xmlns="http://www.w3.org/2000/svg" viewBox="0 0 145 39.7"><defs><style>.cls-1{font-size:40px;fill:#f15922;font-family:AndaleMono, Andale Mono;letter-spacing:-0.13em;}.cls-2{fill:#50b4a4;stroke-width:0.25px;stroke-miterlimit:4;}.cls-2,.cls-4{stroke:#50b4a4;}.cls-2,.cls-4,.cls-5{stroke-linecap:round;stroke-linejoin:round;}.cls-3{letter-spacing:-0.1em;}.cls-4,.cls-5{fill:none;stroke-width:0.5px;}.cls-5{stroke:#f15922;}</style></defs><title>electraLogoFinal</title><text class="cls-1" transform="translate(-3.8 38.2)">E<tspan class="cls-2" x="18.9" y="0">L</tspan><tspan x="37.8" y="0">E</tspan><tspan class="cls-3" x="56.8" y="0">CTR</tspan></text><polygon class="cls-4" points="118.4 38 121.4 30.5 131.4 5.8 141.4 30.5 144.5 38.2 131.2 30.5 118.4 38"/><polygon class="cls-4" points="141.4 30.5 121.4 30.5 131.1 39.5 141.4 30.5"/><polygon class="cls-4" points="141.4 30.5 121.4 30.5 131.3 21.2 141.4 30.5"/><path class="cls-4" d="M131.1,39.5l.3-33.7Z"/><polygon class="cls-4" points="137.7 21.3 125.2 21.3 131.2 30.5 137.7 21.3"/><polygon class="cls-4" points="137.7 21.3 125.2 21.3 131.3 13.2 137.7 21.3"/><polygon class="cls-4" points="128.4 13.2 134.4 13.2 131.3 21.2 128.4 13.2"/><polyline class="cls-5" points="118.9 0.5 125.5 5.2 126.2 1.6 129.4 4.2"/></svg>